<?xml version="1.0" encoding="utf-8"?><svg viewBox="0 0 309 41" xmlns="http://www.w3.org/2000/svg" xmlns:xlink="http://www.w3.org/1999/xlink"><style>:root>svg{display:none}:root>svg:target{display:block}</style><svg fill="none" viewBox="0 0 173 12" id="_arrow" xmlns="http://www.w3.org/2000/svg"><path d="M1 5a1 1 0 0 0 0 2V5Zm171.774 1L167 .227 161.227 6 167 11.774 172.774 6ZM6.929 7a1 1 0 1 0 0-2v2Zm11.857-2a1 1 0 1 0 0 2V5Zm11.857 2a1 1 0 0 0 0-2v2ZM42.5 5a1 1 0 1 0 0 2V5Zm11.857 2a1 1 0 1 0 0-2v2Zm11.857-2a1 1 0 1 0 0 2V5Zm11.857 2a1 1 0 1 0 0-2v2ZM89.93 5a1 1 0 1 0 0 2V5Zm11.857 2a1 1 0 0 0 0-2v2Zm11.857-2a1 1 0 0 0 0 2V5ZM125.5 7a1 1 0 0 0 0-2v2Zm11.857-2a1 1 0 0 0 0 2V5Zm11.857 2a1 1 0 1 0 0-2v2Zm11.857-2a1 1 0 0 0 0 2V5ZM1 7h5.929V5H1v2Zm17.786 0h11.857V5H18.786v2ZM42.5 7h11.857V5H42.5v2Zm23.714 0h11.857V5H66.214v2ZM89.93 7h11.857V5H89.929v2Zm23.714 0H125.5V5h-11.857v2Zm23.714 0h11.857V5h-11.857v2Zm23.714 0H167V5h-5.929v2Z" fill="#794187"/></svg><svg fill="none" viewBox="0 0 204 41" id="_binance" xmlns="http://www.w3.org/2000/svg"><g clip-path="url(#ba)" fill="#896E6E"><path d="m12.478 17.228 7.924-7.96 7.927 7.966 4.609-4.634L20.402 0 7.866 12.597l4.612 4.63ZM-.002 20.501l4.61-4.632 4.61 4.632-4.61 4.632-4.61-4.632ZM12.478 23.772l7.924 7.963 7.927-7.966 4.612 4.627-.003.003L20.402 41 7.866 28.406l-.006-.007 4.618-4.627ZM31.578 20.502l4.61-4.632 4.61 4.632-4.61 4.632-4.61-4.632Z"/><path d="m25.078 20.499-4.676-4.702-3.458 3.475-.4.398-.818.822-.006.007.006.01 4.676 4.695 4.676-4.702.003-.003h-.003ZM47.99 9.935H58.02c2.488 0 4.37.647 5.646 1.942a5.022 5.022 0 0 1 1.479 3.666v.062a5.42 5.42 0 0 1-.23 1.645 5.06 5.06 0 0 1-.615 1.295 4.774 4.774 0 0 1-.889 1.01c-.335.29-.701.54-1.092.745a7.3 7.3 0 0 1 2.955 1.943c.717.82 1.076 1.954 1.076 3.4v.062a5.673 5.673 0 0 1-.57 2.61 5.083 5.083 0 0 1-1.634 1.865 7.732 7.732 0 0 1-2.562 1.118c-1.086.258-2.2.384-3.316.372H47.99V9.935Zm9.023 8.788a4.94 4.94 0 0 0 2.504-.544 1.875 1.875 0 0 0 .922-1.755v-.061a1.928 1.928 0 0 0-.803-1.662c-.535-.382-1.307-.573-2.317-.573h-4.692v4.595h4.386Zm1.267 8.76a4.559 4.559 0 0 0 2.481-.573 1.966 1.966 0 0 0 .896-1.788v-.061a2.052 2.052 0 0 0-.835-1.723c-.554-.432-1.45-.648-2.687-.648h-5.508v4.793h5.653ZM72.324 9.935h4.76v21.742h-4.76V9.934ZM84.286 9.935h4.389l10.144 13.38V9.935h4.699v21.742h-4.05L88.99 17.855v13.822h-4.705V9.934ZM117.929 9.78h4.383l9.271 21.897h-4.969l-1.979-4.877h-9.149l-1.978 4.877h-4.853l9.274-21.898Zm5.008 12.797-2.881-7.053-2.868 7.053h5.749ZM136.729 9.935h4.389l10.139 13.38V9.935h4.698v21.742h-4.051l-10.476-13.822v13.822h-4.699V9.934ZM173.086 32.059a11.204 11.204 0 0 1-4.421-.868 10.675 10.675 0 0 1-3.518-2.373 10.743 10.743 0 0 1-2.325-3.56 11.552 11.552 0 0 1-.834-4.38v-.062a11.31 11.31 0 0 1 3.155-7.937 10.702 10.702 0 0 1 3.544-2.423 11.52 11.52 0 0 1 4.573-.884c.928-.007 1.854.077 2.765.25.78.148 1.542.377 2.275.683a9.821 9.821 0 0 1 1.885 1.055c.574.41 1.113.868 1.612 1.367l-3.026 3.51a11.533 11.533 0 0 0-2.578-1.803 6.572 6.572 0 0 0-2.952-.648 5.962 5.962 0 0 0-4.512 1.988 6.84 6.84 0 0 0-1.302 2.16c-.31.84-.466 1.73-.461 2.627v.061a7.567 7.567 0 0 0 .461 2.623c.293.798.73 1.535 1.289 2.173a5.948 5.948 0 0 0 4.512 2.02 6.583 6.583 0 0 0 3.135-.683 12.117 12.117 0 0 0 2.549-1.865l3.03 3.076a15.516 15.516 0 0 1-1.731 1.62c-.606.481-1.264.893-1.962 1.227-.744.352-1.528.612-2.333.774-.932.188-1.88.279-2.83.272ZM187.558 9.935h16.284v4.255h-11.601v4.41h10.215v4.255h-10.199v4.566h11.746v4.256h-16.435l-.01-21.742Z"/></g><defs><clipPath id="ba"><path fill="#fff" d="M0 0h204v41H0z"/></clipPath></defs></svg><svg fill="none" viewBox="0 0 178 29" id="_bitmex" xmlns="http://www.w3.org/2000/svg"><g clip-path="url(#ca)" fill="#896E6E"><path d="M15.136.532h16.633c-.01.216-.086.424-.218.597-.563.948-1.07 1.934-1.623 2.882-.783 1.36-1.515 2.746-2.31 4.101-.504.976-1.073 1.92-1.61 2.88H16.31c-.169 0-.336.008-.505.017-.141.365-.375.684-.563 1.027-.247.392-.447.81-.69 1.203-.258.528-.614 1-.873 1.526-.535.891-1.035 1.796-1.558 2.697-.546.921-1.08 1.855-1.602 2.802-.221.335-.425.681-.61 1.037-1.094 1.868-2.152 3.752-3.247 5.619-.093.2-.216.386-.364.552-1.872-.012-3.744 0-5.616 0-.23.004-.46.036-.683.094 0-.508.346-.916.58-1.343.282-.573.657-1.105.94-1.68 2.244-3.94 4.464-7.893 6.7-11.836.508-.857.943-1.73 1.452-2.57.637-1.106 1.23-2.236 1.892-3.329.211-.457.496-.876.728-1.322.825-1.44 1.634-2.89 2.456-4.33.098-.226.228-.436.388-.624Z"/><path d="M34.41 6.333c1.107-1.9 2.177-3.82 3.3-5.71h6.009c.087.003.174.017.259.04-.2.296-.368.611-.544.92a2976.582 2976.582 0 0 0-4.334 7.66c-.605 1.041-1.168 2.105-1.782 3.14l-.06.02-.012.13c-2.825 4.973-5.64 9.95-8.446 14.93-5.515.006-11.031.006-16.548 0 .314-.643.686-1.258 1.035-1.883 1.571-2.835 3.183-5.645 4.731-8.48 3.39-.005 6.778-.005 10.167 0 2.093-3.578 4.141-7.183 6.219-10.767h.006ZM96.415.549V27.79h4.81V8.635l8.774 12.616 8.704-12.916V27.79h4.95V.55h-5.325l-8.294 12.575L101.647.55h-5.232ZM73.915 7.574h3.143V28.02h-3.143V7.574ZM73.645 0h3.684v3.43h-3.684V0ZM83.065 1.716h3.285v5.859h6.475v2.855H86.35v12.146c-.006.468.105.93.322 1.347.556 1.036 2.066 2.265 6.153.829v2.647s-3.73 2.072-7.109.185c0 0-1.678-.7-2.383-3.059a6.766 6.766 0 0 1-.268-1.944V10.384l-2.769.046V7.575h2.792l-.023-5.86ZM128.721.549v27.426h20.88v-4.42h-15.789v-7.277h13.913v-4.351h-13.937v-6.93h15.65V.55h-20.717ZM151.561.549h5.947l6.827 9.629 6.774-9.63h5.948l-9.713 13.376 10.318 14.027h-6.264l-7.039-10.244-7.379 10.268h-5.947l10.17-13.93L151.561.55ZM64.295 13.745s4.599-1.703 4.317-6.607c0 0-.038-4.716-5.45-6.172-.899-.237-1.827-.354-2.758-.349H47.426l.035 27.243h13.972s8.176-.173 8.752-7.322c0 0 .585-4.997-5.89-6.793ZM50.78 3.43h8.283c6.498-.022 6.31 4.468 6.31 4.468.098 5.122-5.865 5.018-5.865 5.018H50.78V3.43Zm10.135 21.55H50.781v-9.484h9.69c6.498-.024 6.311 4.466 6.311 4.466.097 5.122-5.866 5.019-5.866 5.019Z"/></g><defs><clipPath id="ca"><path fill="#fff" d="M0 0h177.662v28.377H0z"/></clipPath></defs></svg><svg fill="none" viewBox="0 0 309 24" id="_blockchain" xmlns="http://www.w3.org/2000/svg"><path fill-rule="evenodd" clip-rule="evenodd" d="M78.775 18.25c1.83 0 3.506-.8 4.675-2 .254-.3.813-.85.763-.75l3.913 4.15A12.235 12.235 0 0 1 78.724 24c-6.76 0-12.198-5.35-12.198-12S71.965 0 78.725 0c3.608 0 6.86 1.55 9.097 4l-3.913 4.15-.915-.9a6.29 6.29 0 0 0-4.218-1.6c-3.507 0-6.404 2.8-6.404 6.3 0 3.45 2.846 6.3 6.404 6.3ZM229.31 23.6c1.829 0 3.1-1.25 3.1-3.05 0-1.75-1.271-2.95-3.1-3-1.779 0-3.05 1.25-3.05 3 0 1.8 1.271 3.05 3.05 3.05Zm-99.561-7.25c-1.169 1.2-2.847 2-4.676 2-3.558 0-6.404-2.85-6.404-6.3 0-3.5 2.897-6.3 6.404-6.3 1.626 0 3.1.6 4.218 1.6l.915.9L134.171 4c-2.236-2.45-5.489-4-9.097-4-6.76 0-12.198 5.35-12.198 12s5.438 12 12.198 12c3.812 0 7.166-1.7 9.402-4.35l-3.913-4.15s-.559.55-.813.85Zm116.688 1.9c1.829 0 3.506-.8 4.675-2 .254-.3.813-.85.763-.75l3.913 4.15a12.234 12.234 0 0 1-9.402 4.35c-6.76 0-12.198-5.35-12.198-12s5.438-12 12.198-12c3.608 0 6.861 1.55 9.097 4l-3.913 4.15-.915-.9a6.29 6.29 0 0 0-4.218-1.6c-3.507 0-6.404 2.8-6.404 6.3 0 3.45 2.846 6.3 6.404 6.3ZM16.466 11.5c2.084-.9 3.609-2.45 3.609-5.15V6.3c0-1.6-.56-2.8-1.525-3.7C17.178 1.2 15.145.5 12.197.5H0v23h12.248c5.59 0 8.843-2.4 8.843-6.35v-.05c0-3.15-1.779-4.7-4.625-5.6Zm-9.96-5.9h4.217c1.932 0 2.948.7 2.948 1.95v.05c0 1.35-1.118 2-3.1 2H6.505v-4Zm8.13 10.7c0 1.35-1.117 2.1-3.1 2.1h-5.03v-4.25h4.929c2.185 0 3.151.8 3.151 2.05v.1h.05ZM23.125.5h6.505v17.45h10.52v5.55H23.125V.5Zm129.241 8.6h-8.334V.5h-6.506v23.05l6.506-.05v-8.75h8.334v8.75h6.506V.5h-6.506v8.6ZM171.627.5h6.2l9.911 23h-6.912l-1.677-4.1h-8.945l-1.677 4.1h-6.759l9.859-23Zm2.999 7.5-2.592 6.5h5.184L174.626 8ZM197.14.5h-6.505v23.05h6.505V.5Zm18.804 12.2V.55h6.506v23h-5.743L206.695 10.9v12.65h-6.506V.5l6.099.05 9.656 12.15ZM112.978.5h-7.674l-8.08 9.35V.5h-6.506v23.05h6.505V17.6l2.389-2.6 6.556 8.55h7.725L103.83 10.4l9.148-9.9ZM40.658 12c0-6.65 5.438-12 12.197-12 6.709 0 12.198 5.35 12.198 12s-5.438 12-12.198 12c-6.76 0-12.197-5.35-12.197-12Zm5.794 0c0 3.45 2.846 6.3 6.403 6.3 3.558 0 6.404-2.8 6.404-6.3 0-3.45-2.846-6.3-6.404-6.3-3.506 0-6.403 2.8-6.403 6.3ZM268.545 0c-6.759 0-12.197 5.35-12.197 12s5.438 12 12.197 12c6.76 0 12.198-5.35 12.198-12s-5.438-12-12.198-12Zm0 18.3c-3.557 0-6.403-2.85-6.403-6.3 0-3.5 2.897-6.3 6.403-6.3 3.558 0 6.404 2.85 6.404 6.3.051 3.5-2.846 6.3-6.404 6.3Zm34.356-8.45-4.675 11.3h-4.524l-4.675-11.3v13.6h-6.099V.5h7.42l5.642 12.7L301.631.5H309v22.95h-6.099V9.85Z" fill="#896E6E"/></svg><svg fill="none" viewBox="0 0 149 33" id="_coinbase" xmlns="http://www.w3.org/2000/svg"><path fill-rule="evenodd" clip-rule="evenodd" d="M11.596 28.84a8.707 8.707 0 0 0 3.25-.618c.01.02 2.08 3.284 2.109 3.306C15.081 32.55 13.123 33 10.983 33 4.619 33 0 28.745 0 21.953c0-6.841 4.855-11.096 10.982-11.096 2.182 0 3.902.48 5.634 1.42-.191.322-1.974 3.394-1.98 3.407a8.48 8.48 0 0 0-3.23-.618c-3.771 0-6.693 2.44-6.693 6.887 0 4.208 2.828 6.887 6.883 6.887Zm16.05-17.983c6.269 0 10.794 4.497 10.794 11.096C38.44 28.505 33.915 33 27.646 33 21.425 33 16.9 28.506 16.9 21.953c0-6.6 4.525-11.096 10.746-11.096Zm0 4.066c-3.487 0-6.034 2.726-6.034 7.03 0 4.257 2.546 6.983 6.035 6.983 3.582 0 6.08-2.726 6.08-6.983 0-4.304-2.498-7.03-6.081-7.03Zm13.764 17.6V11.334h4.665v21.189H41.41Zm-.614-27.694c0-1.625 1.368-2.915 2.923-2.915 1.556 0 2.922 1.29 2.922 2.917 0 1.674-1.366 3.013-2.922 3.013-1.555 0-2.923-1.339-2.923-3.013v-.002Zm9.35 7.846c2.922-1.148 6.506-1.818 9.568-1.818 5.327 0 8.72 2.056 8.72 8.034v13.632h-4.618v-13.2c0-3.061-1.885-4.162-4.48-4.162-1.65 0-3.297.24-4.524.622v16.74h-4.666V12.675ZM72.342 0h4.665v11.91c.99-.527 2.922-1.053 4.76-1.053 6.034 0 10.557 3.92 10.557 10.713 0 6.839-4.476 11.43-12.206 11.43a22.905 22.905 0 0 1-7.776-1.386V0Zm4.665 28.506c.895.286 2.073.428 3.252.428 4.289 0 7.353-2.39 7.353-7.27 0-4.112-2.874-6.551-6.41-6.551-1.837 0-3.253.479-4.196 1.005v12.388Zm28.797-10.19c0-2.295-1.698-3.346-4.007-3.346-2.404 0-4.289.717-6.032 1.722v-4.114c1.837-1.05 4.193-1.721 6.787-1.721 4.57 0 7.822 1.912 7.822 7.22v14.015c-1.979.525-4.805.861-7.162.861-5.42 0-9.38-1.674-9.38-6.457 0-4.304 3.628-6.408 9.661-6.408h2.309l.002-1.771Zm0 4.927h-1.98c-3.253 0-5.373.958-5.373 3.11 0 2.2 1.98 3.06 4.807 3.06.708 0 1.698-.096 2.546-.24v-5.93Zm7.964 3.54c1.933 1.482 4.241 2.39 6.362 2.39 2.075 0 3.442-.716 3.442-2.39 0-1.723-1.226-2.344-3.911-3.061-4.337-1.004-6.176-2.773-6.176-6.456 0-4.305 3.206-6.41 7.447-6.41 2.357 0 4.242.527 5.985 1.626v4.353c-1.838-1.338-3.628-2.152-5.843-2.152-2.027 0-3.111 1.004-3.111 2.392 0 1.385.894 2.104 3.299 2.771 4.762 1.054 6.835 2.873 6.835 6.698 0 4.448-3.347 6.456-7.871 6.456-2.451 0-4.902-.668-6.457-1.721l-.001-4.495Zm20.716-3.778v.096c.283 3.777 3.486 5.833 6.738 5.833 2.876 0 4.951-.669 7.023-2.056v4.163C146.36 32.379 143.579 33 140.894 33c-6.505 0-10.935-4.208-10.935-10.903 0-6.744 4.335-11.239 10.086-11.239 6.079 0 8.955 3.969 8.955 9.754v2.394l-14.516-.001Zm10.132-3.062c-.093-3.3-1.695-5.116-4.712-5.116-2.687 0-4.667 1.914-5.279 5.118l9.991-.002Z" fill="#896E6E"/></svg><svg fill="none" viewBox="0 0 15 27" id="_facebook" xmlns="http://www.w3.org/2000/svg"><path d="M9.46 27V14.704h4.144l.616-4.814H9.46V6.823c0-1.389.387-2.34 2.379-2.34h2.524V.191A33.438 33.438 0 0 0 10.666 0C7.003 0 4.488 2.238 4.488 6.347V9.88H.371v4.814h4.126V27h4.964Z" fill="#D53D5C"/></svg><svg fill="none" viewBox="0 0 29 27" id="_google" xmlns="http://www.w3.org/2000/svg"><path d="M1.82 6.733c0 2.292.777 3.946 2.309 4.917 1.255.798 2.71.917 3.468.917.183 0 .331-.009.434-.015 0 0-.24 1.54.92 3.062h-.054c-2.008 0-8.557.413-8.557 5.717C.34 26.725 6.355 27 7.562 27c.095 0 .151-.003.151-.003.013 0 .099.003.247.003.774 0 2.776-.095 4.635-.986 2.411-1.151 3.634-3.16 3.634-5.96 0-2.706-1.863-4.317-3.223-5.495-.83-.72-1.549-1.34-1.549-1.943 0-.613.525-1.075 1.187-1.66 1.074-.943 2.086-2.288 2.086-4.832 0-2.235-.294-3.737-2.109-4.69.188-.095.858-.164 1.189-.21.983-.132 2.42-.282 2.42-1.072V0H9.067C8.994.003 1.82.264 1.82 6.733ZM13.386 20.56c.137 2.157-1.737 3.748-4.552 3.949-2.86.207-5.212-1.06-5.349-3.216-.067-1.037.396-2.05 1.301-2.858.918-.817 2.178-1.324 3.549-1.423.162-.01.323-.019.483-.019 2.647.002 4.439 1.533 4.568 3.567ZM11.515 5.256c.702 2.436-.359 4.98-2.05 5.45-.195.054-.397.08-.599.08-1.548 0-3.083-1.543-3.653-3.67-.318-1.191-.291-2.238.073-3.24.357-.99 1.002-1.655 1.812-1.88.195-.054.396-.081.6-.081 1.87 0 3.072.764 3.817 3.34Zm12.133 5.176V5.83h-3.116v4.602h-4.674V13.5h4.674v4.602h3.116V13.5h4.674v-3.068h-4.674Z" fill="#D53D5C"/></svg><svg fill="none" viewBox="0 0 28 26" id="_heart" xmlns="http://www.w3.org/2000/svg"><path d="M20.3 0c-2.436 0-4.774 1.134-6.3 2.926C12.474 1.134 10.136 0 7.7 0 3.388 0 0 3.388 0 7.7c0 5.292 4.76 9.604 11.97 16.156L14 25.69l2.03-1.848C23.24 17.304 28 12.992 28 7.7 28 3.388 24.612 0 20.3 0Zm-6.16 21.77-.14.14-.14-.14C7.196 15.736 2.8 11.746 2.8 7.7c0-2.8 2.1-4.9 4.9-4.9 2.156 0 4.256 1.386 4.998 3.304h2.618C16.044 4.186 18.144 2.8 20.3 2.8c2.8 0 4.9 2.1 4.9 4.9 0 4.046-4.396 8.036-11.06 14.07Z" fill="#76607A"/></svg><svg fill="none" viewBox="0 0 34 28" id="_twitter" xmlns="http://www.w3.org/2000/svg"><path d="M30.118 7.328c.022.292.022.582.022.872 0 8.875-6.75 19.102-19.088 19.102-3.801 0-7.332-1.102-10.304-3.015.54.061 1.06.083 1.62.083a13.436 13.436 0 0 0 8.33-2.868 6.72 6.72 0 0 1-6.274-4.655c.415.061.831.103 1.268.103.601 0 1.206-.083 1.767-.228a6.707 6.707 0 0 1-5.38-6.589v-.083c.895.498 1.932.81 3.032.852a6.702 6.702 0 0 1-2.992-5.59c0-1.247.332-2.39.913-3.387A19.085 19.085 0 0 0 16.866 8.95a7.638 7.638 0 0 1-.166-1.538 6.713 6.713 0 0 1 4.141-6.204 6.702 6.702 0 0 1 2.568-.51c1.932 0 3.676.81 4.902 2.12 1.502-.29 2.942-.84 4.257-1.621a6.7 6.7 0 0 1-2.95 3.7 13.441 13.441 0 0 0 3.863-1.04 14.407 14.407 0 0 1-3.363 3.471Z" fill="#D53D5C"/></svg><svg fill="none" viewBox="0 0 39 27" id="_youtube" xmlns="http://www.w3.org/2000/svg"><path d="M37.535 4.13A4.7 4.7 0 0 0 34.233.82C31.299.012 19.559 0 19.559 0S7.821-.013 4.885.758a4.796 4.796 0 0 0-3.31 3.333c-.773 2.937-.78 9.026-.78 9.026s-.008 6.12.76 9.027a4.697 4.697 0 0 0 3.304 3.31c2.964.805 14.672.819 14.672.819s11.74.013 14.674-.756a4.712 4.712 0 0 0 3.31-3.306c.777-2.934.782-9.022.782-9.022s.038-6.122-.762-9.058ZM15.804 18.76l.01-11.25 9.756 5.634-9.766 5.615Z" fill="#F7D7FF"/></svg></svg>