<?xml version="1.0" standalone="no"?>
<!DOCTYPE svg PUBLIC "-//W3C//DTD SVG 20010904//EN"
 "http://www.w3.org/TR/2001/REC-SVG-20010904/DTD/svg10.dtd">
<svg version="1.0" xmlns="http://www.w3.org/2000/svg"
 width="194.000000pt" height="194.000000pt" viewBox="0 0 194.000000 194.000000"
 preserveAspectRatio="xMidYMid meet">
<metadata>
Created by potrace 1.14, written by Peter Selinger 2001-2017
</metadata>
<g transform="translate(0.000000,194.000000) scale(0.100000,-0.100000)"
fill="#000000" stroke="none">
<path d="M745 1805 c-115 -68 -226 -132 -245 -143 -84 -47 -353 -203 -360
-209 -7 -6 -6 -942 1 -961 4 -10 29 -30 55 -43 27 -14 132 -74 234 -134 102
-59 223 -130 268 -156 46 -27 85 -49 87 -49 1 0 45 -25 96 -55 l92 -55 31 19
c41 25 708 410 764 441 l42 24 -2 485 -3 485 -75 44 c-41 25 -90 53 -107 63
-86 49 -111 64 -152 87 -24 13 -104 60 -178 103 -75 43 -136 79 -138 79 -1 0
-40 22 -86 50 -46 27 -91 50 -99 49 -8 0 -109 -56 -225 -124z m411 -91 c93
-53 185 -106 205 -118 20 -12 107 -61 193 -111 l156 -90 0 -426 0 -426 -197
-114 c-109 -63 -207 -119 -218 -125 -11 -6 -87 -50 -170 -98 -122 -71 -153
-86 -170 -78 -11 5 -130 74 -265 152 -135 78 -263 152 -285 165 -22 12 -62 35
-90 50 -27 16 -57 34 -65 41 -13 11 -15 71 -14 433 0 252 4 424 10 429 5 5
133 80 284 167 151 87 311 180 355 206 44 26 85 46 91 44 6 -2 87 -47 180
-101z"/>
<path d="M853 1647 l-123 -72 0 -608 0 -607 48 -31 47 -30 5 304 5 304 125 1
c69 0 151 1 183 1 l57 1 0 60 c0 50 -3 60 -17 61 -10 1 -93 1 -185 2 l-168 0
0 241 0 241 73 39 73 39 122 -73 c70 -41 126 -69 131 -64 4 5 18 26 30 46 l22
37 -23 14 c-34 21 -240 142 -263 154 -17 9 -40 -1 -142 -60z"/>
<path d="M578 1472 l-47 -27 -3 -237 -3 -238 -54 188 c-30 103 -55 189 -57
191 -2 2 -23 -8 -47 -22 l-43 -26 0 -352 1 -353 34 -23 c19 -13 38 -23 42 -23
5 0 9 105 9 233 1 272 -4 277 91 -89 l63 -241 38 -22 38 -22 0 546 c0 300 -3
545 -7 544 -5 0 -29 -12 -55 -27z"/>
<path d="M1301 1464 c-12 -19 -21 -38 -21 -42 0 -4 29 -26 64 -49 l63 -41 0
-439 c1 -352 3 -437 13 -435 8 2 32 14 55 28 l42 24 1 362 c0 200 1 371 1 381
1 15 12 10 64 -25 34 -23 64 -41 67 -40 3 1 5 27 6 57 l1 54 -159 101 c-88 55
-163 100 -168 100 -4 0 -17 -16 -29 -36z"/>
</g>
</svg>
