<svg width="40" height="40" viewBox="0 0 40 40" fill="none" xmlns="http://www.w3.org/2000/svg">
<path d="M18.4432 13.3399L18.7499 13.3315H31.2499C32.6332 13.3314 33.9641 13.8605 34.9697 14.8104C35.9753 15.7602 36.5795 17.0588 36.6582 18.4399L36.6665 18.7482V31.2482C36.6666 32.6318 36.1373 33.9629 35.1871 34.9686C34.2369 35.9743 32.9379 36.5782 31.5565 36.6565L31.2499 36.6649H18.7499C17.3663 36.665 16.0352 36.1356 15.0295 35.1854C14.0238 34.2352 13.4199 32.9362 13.3415 31.5549L13.3332 31.2499V18.7499C13.3331 17.3663 13.8625 16.0352 14.8127 15.0295C15.7629 14.0238 17.0619 13.4199 18.4432 13.3415V13.3399ZM31.2499 15.8315H18.7499C18.0179 15.8316 17.3127 16.1068 16.7742 16.6027C16.2358 17.0985 15.9034 17.7787 15.8432 18.5082L15.8332 18.7482V31.2482C15.8333 31.9805 16.1088 32.6859 16.605 33.2244C17.1011 33.7629 17.7817 34.095 18.5115 34.1549L18.7499 34.1649H31.2499C31.9821 34.1648 32.6876 33.8893 33.2261 33.3931C33.7646 32.8969 34.0967 32.2163 34.1565 31.4865L34.1665 31.2482V18.7482C34.1665 17.9747 33.8593 17.2328 33.3123 16.6858C32.7653 16.1388 32.0234 15.8315 31.2499 15.8315V15.8315ZM24.9999 18.3332C25.3314 18.3332 25.6493 18.4649 25.8838 18.6993C26.1182 18.9337 26.2499 19.2517 26.2499 19.5832V23.7465H30.4165C30.7481 23.7465 31.066 23.8782 31.3004 24.1127C31.5348 24.3471 31.6665 24.665 31.6665 24.9965C31.6665 25.3281 31.5348 25.646 31.3004 25.8804C31.066 26.1148 30.7481 26.2465 30.4165 26.2465H26.2499V30.4165C26.2499 30.7481 26.1182 31.066 25.8838 31.3004C25.6493 31.5348 25.3314 31.6665 24.9999 31.6665C24.6684 31.6665 24.3504 31.5348 24.116 31.3004C23.8816 31.066 23.7499 30.7481 23.7499 30.4165V26.2465H19.5832C19.2517 26.2465 18.9337 26.1148 18.6993 25.8804C18.4649 25.646 18.3332 25.3281 18.3332 24.9965C18.3332 24.665 18.4649 24.3471 18.6993 24.1127C18.9337 23.8782 19.2517 23.7465 19.5832 23.7465H23.7499V19.5832C23.7499 19.2517 23.8816 18.9337 24.116 18.6993C24.3504 18.4649 24.6684 18.3332 24.9999 18.3332ZM25.9699 7.05487L26.0565 7.34987L27.2115 11.6632H24.6232L23.6432 7.99654C23.5442 7.62635 23.3732 7.27931 23.14 6.97525C22.9068 6.67118 22.6159 6.41605 22.2841 6.22443C21.9522 6.03282 21.5859 5.90847 21.206 5.8585C20.826 5.80853 20.44 5.83391 20.0699 5.9332L7.99654 9.16987C7.29175 9.35886 6.68341 9.80517 6.29155 10.4207C5.8997 11.0363 5.75281 11.7763 5.87987 12.4949L5.9332 12.7415L9.16987 24.8149C9.32169 25.3822 9.64124 25.8905 10.0867 26.2732C10.5322 26.6559 11.0828 26.8953 11.6665 26.9599V29.4699C10.5829 29.4053 9.54364 29.0168 8.68336 28.3547C7.82308 27.6926 7.18144 26.7875 6.84154 25.7565L6.75487 25.4632L3.51987 13.3882C3.16154 12.0522 3.32793 10.6296 3.98492 9.41237C4.6419 8.19508 5.7397 7.27527 7.0532 6.84154L7.34987 6.75487L19.4232 3.51987C20.7592 3.16154 22.1818 3.32793 23.399 3.98491C24.6163 4.6419 25.5361 5.7397 25.9699 7.0532V7.05487Z" fill="#908294"/>
</svg>
