<svg width="36" height="36" viewBox="0 0 36 36" fill="none" xmlns="http://www.w3.org/2000/svg">
<path d="M31.9999 15H30.9999V9C30.9999 8.73478 30.8945 8.48043 30.707 8.29289C30.5195 8.10536 30.2651 8 29.9999 8H5.99989C5.7631 8.00386 5.53263 7.92356 5.3495 7.7734C5.16638 7.62324 5.04249 7.41296 4.99989 7.18V6.82C5.04249 6.58704 5.16638 6.37676 5.3495 6.2266C5.53263 6.07644 5.7631 5.99614 5.99989 6H29.5799C29.8451 6 30.0995 5.89464 30.287 5.70711C30.4745 5.51957 30.5799 5.26522 30.5799 5C30.5799 4.73478 30.4745 4.48043 30.287 4.29289C30.0995 4.10536 29.8451 4 29.5799 4H5.99989C5.20424 4 4.44118 4.31607 3.87857 4.87868C3.31596 5.44129 2.99989 6.20435 2.99989 7C2.99287 7.1199 2.99287 7.2401 2.99989 7.36V27.93C3.00382 28.4684 3.11376 29.0008 3.32344 29.4967C3.53312 29.9927 3.83843 30.4424 4.22194 30.8204C4.60545 31.1983 5.05964 31.497 5.55859 31.6994C6.05754 31.9018 6.59147 32.0039 7.12989 32H29.9999C30.2651 32 30.5195 31.8946 30.707 31.7071C30.8945 31.5196 30.9999 31.2652 30.9999 31V25H31.9999C32.2651 25 32.5195 24.8946 32.707 24.7071C32.8945 24.5196 32.9999 24.2652 32.9999 24V16C32.9999 15.7348 32.8945 15.4804 32.707 15.2929C32.5195 15.1054 32.2651 15 31.9999 15ZM28.9999 30H7.12989C6.57369 30.0054 6.03787 29.7909 5.63898 29.4032C5.2401 29.0156 5.01041 28.4861 4.99989 27.93V9.88C5.32449 9.97407 5.66225 10.0146 5.99989 10H28.9999V15H21.9999C20.6738 15 19.402 15.5268 18.4644 16.4645C17.5267 17.4021 16.9999 18.6739 16.9999 20C16.9999 21.3261 17.5267 22.5978 18.4644 23.5355C19.402 24.4732 20.6738 25 21.9999 25H28.9999V30ZM30.9999 23H21.9999C21.2042 23 20.4412 22.6839 19.8786 22.1213C19.316 21.5587 18.9999 20.7956 18.9999 20C18.9999 19.2043 19.316 18.4413 19.8786 17.8787C20.4412 17.3161 21.2042 17 21.9999 17H30.9999V23Z" fill="#908294"/>
<path d="M23.0103 21.5C23.8387 21.5 24.5103 20.8284 24.5103 20C24.5103 19.1716 23.8387 18.5 23.0103 18.5C22.1818 18.5 21.5103 19.1716 21.5103 20C21.5103 20.8284 22.1818 21.5 23.0103 21.5Z" fill="#908294"/>
</svg>
